# xmcd
# Track frame offsets:
# 150
# 14655
# 41517
# 57415
# 77553
# 92829
# 111729
# 131663
# 148354
# 162143
# 187057
# 208109
#
# Disc length: 3109 seconds
# Revision: 0
# Processed by: cddbd v1.5.2PL0 Copyright (c) Steve Scherf et al.
# Submitted via: VisiTrax 2.11.2.271 - For more info visit www.synapsa.com
#
DISCID=b70c230c
DTITLE=Blind Lemon - Drinker's Lament
DYEAR=2011
DGENRE=Blues
TTITLE0=Blind Lemon - Stick Around Town
TTITLE1=Blind Lemon - Drinker's Lament
TTITLE2=Blind Lemon - Sugar Box
TTITLE3=Blind Lemon - T- Bird Shuffle
TTITLE4=Blind Lemon - She Gone Left Me
TTITLE5=Blind Lemon - Sideswipe
TTITLE6=Blind Lemon - Little Girl
TTITLE7=Blind Lemon - What's Not There
TTITLE8=Blind Lemon - High and Dry
TTITLE9=Blind Lemon - Leave you Crying
TTITLE10=Blind Lemon - Shadows
TTITLE11=Fred Smith - Baa  Baa
EXTD=
EXTT0=
EXTT1=
EXTT2=
EXTT3=
EXTT4=
EXTT5=
EXTT6=
EXTT7=
EXTT8=
EXTT9=
EXTT10=
EXTT11=
PLAYORDER=
